<?xml version="1.0"?>
<svg xmlns="http://www.w3.org/2000/svg" xmlns:xlink="http://www.w3.org/1999/xlink" version="1.1" id="Capa_1" x="0px" y="0px" viewBox="0 0 512 512" style="enable-background:new 0 0 512 512;" xml:space="preserve" width="512px" height="512px" class="hovered-paths"><g><g>
	<g>
		<path d="M512,443.25V71.917H307.769L268.991,4.75h-25.98l-38.779,67.166H0V443.25h166.333v34h-27.666v30h234.666v-30h-27.667v-34    H512z M256,42.25l129.519,224.333H126.481L256,42.25z M30,101.917h156.911L87.51,274.083l12.99,22.5h311l12.99-22.5l-99.4-172.167    H482v226.001H30V101.917z M196.333,477.25v-34h119.333v34H196.333z M30,413.25v-55.333h452v55.333H30z" data-original="#000000" class="active-path" data-old_color="#000000" fill="#DC3545"/>
	</g>
</g><g>
	<g>
		<path d="M256,200.835c-12.48,0-21.12,8.16-21.12,18.881c0,10.561,8.641,19.201,21.12,19.201c12.48,0,21.121-8.64,21.121-19.201    C277.121,208.996,268.48,200.835,256,200.835z" data-original="#000000" class="active-path" data-old_color="#000000" fill="#DC3545"/>
	</g>
</g><g>
	<g>
		<polygon points="234.4,125.314 241.6,194.436 270.4,194.436 277.6,125.314   " data-original="#000000" class="active-path" data-old_color="#000000" fill="#DC3545"/>
	</g>
</g></g> </svg>
